<svg xmlns="http://www.w3.org/2000/svg" width="90.016" height="108.456" viewBox="0 0 90.016 108.456"><defs><style>.a{fill:#adadad;}</style></defs><g transform="translate(-72.575 -35)"><path class="a" d="M83.862,143.456h39.26a11.3,11.3,0,0,0,11.287-11.287v-13.25h2.7a1.472,1.472,0,0,0,1.466-1.331l.491-5.087a23.736,23.736,0,0,0,6.053-2.547l3.906,3.235a1.472,1.472,0,0,0,1.98-.093l5.836-5.836a1.472,1.472,0,0,0,.093-1.98l-3.242-3.915a24.214,24.214,0,0,0,2.554-6.045l5.016-.489a1.472,1.472,0,0,0,1.329-1.465V85.091a1.472,1.472,0,0,0-1.331-1.465l-5.087-.491a23.741,23.741,0,0,0-2.547-6.053l3.234-3.906a1.472,1.472,0,0,0-.086-1.973l-5.762-5.836a1.472,1.472,0,0,0-1.988-.1L145.11,68.51a24.22,24.22,0,0,0-6.044-2.554l-.491-5.088a1.472,1.472,0,0,0-1.464-1.33h-2.7V46.287A11.3,11.3,0,0,0,123.122,35H83.862A11.3,11.3,0,0,0,72.575,46.287v85.881a11.3,11.3,0,0,0,11.287,11.287Zm52.374-76.174a1.472,1.472,0,0,0,1.154,1.3,21.314,21.314,0,0,1,7.048,2.975,1.472,1.472,0,0,0,1.737-.1l3.689-3.056,3.878,3.928-3.065,3.7a1.472,1.472,0,0,0-.091,1.755,20.66,20.66,0,0,1,2.962,7.029,1.472,1.472,0,0,0,1.3,1.153l4.8.463v5.6l-4.728.464a1.472,1.472,0,0,0-1.3,1.153,21.307,21.307,0,0,1-2.974,7.048,1.472,1.472,0,0,0,.1,1.737l3.06,3.7-3.94,3.94-3.7-3.06a1.472,1.472,0,0,0-1.756-.091,20.669,20.669,0,0,1-7.029,2.962,1.472,1.472,0,0,0-1.153,1.3l-.464,4.8h-5.6l-.463-4.8a1.472,1.472,0,0,0-1.153-1.3,21.314,21.314,0,0,1-7.048-2.975,1.472,1.472,0,0,0-1.737.1l-3.7,3.06-3.941-3.94,3.06-3.7a1.472,1.472,0,0,0,.091-1.755,20.662,20.662,0,0,1-2.962-7.029,1.472,1.472,0,0,0-1.3-1.153l-4.8-.463v-5.6l4.8-.463a1.472,1.472,0,0,0,1.3-1.153,21.311,21.311,0,0,1,2.975-7.049,1.472,1.472,0,0,0-.1-1.737l-3.06-3.7,3.94-3.94,3.7,3.06a1.472,1.472,0,0,0,1.756.091,20.665,20.665,0,0,1,7.029-2.962,1.472,1.472,0,0,0,1.153-1.3l.464-4.8h5.6ZM83.862,37.945h39.26a8.352,8.352,0,0,1,8.343,8.343v3.435H128.03a1.472,1.472,0,0,0,0,2.944h3.435v6.871h-2.627a1.472,1.472,0,0,0-1.465,1.331l-.491,5.087a23.736,23.736,0,0,0-6.053,2.547l-3.906-3.235a1.472,1.472,0,0,0-1.98.093L109.107,71.2a1.472,1.472,0,0,0-.093,1.98l3.242,3.915a24.233,24.233,0,0,0-2.554,6.044l-5.088.491a1.472,1.472,0,0,0-1.331,1.465v8.273a1.472,1.472,0,0,0,1.331,1.466l5.087.491a23.75,23.75,0,0,0,2.547,6.053l-3.235,3.906a1.472,1.472,0,0,0,.093,1.98l5.836,5.836a1.472,1.472,0,0,0,1.98.093l3.915-3.242a24.215,24.215,0,0,0,6.045,2.553l.491,5.088a1.472,1.472,0,0,0,1.464,1.331h2.627v3.926H75.52V52.667h40a1.472,1.472,0,0,0,0-2.944h-40V46.287A8.352,8.352,0,0,1,83.862,37.945ZM75.52,125.789h55.946v6.38a8.352,8.352,0,0,1-8.343,8.343H83.862a8.352,8.352,0,0,1-8.343-8.343Z" transform="translate(0)"/><path class="a" d="M262.742,97.945h2.727a1.472,1.472,0,1,0,0-2.945h-2.727a1.472,1.472,0,1,0,0,2.945Z" transform="translate(-142.394 -45.277)"/><path class="a" d="M182.728,424.306a5.153,5.153,0,1,0-5.153-5.153,5.153,5.153,0,0,0,5.153,5.153Zm0-7.361a2.208,2.208,0,1,1-2.208,2.208,2.208,2.208,0,0,1,2.208-2.208Z" transform="translate(-79.236 -286.003)"/><path class="a" d="M247.08,201.934a17.58,17.58,0,1,0,17.58-17.58A17.58,17.58,0,0,0,247.08,201.934ZM264.66,187.3a14.636,14.636,0,1,1-14.636,14.636A14.636,14.636,0,0,1,264.66,187.3Z" transform="translate(-131.686 -112.706)"/><path class="a" d="M290.582,243.829a1.472,1.472,0,0,0,2.057,0l8.584-8.381a1.472,1.472,0,1,0-2.057-2.107l-7.556,7.377-3.736-3.648a1.472,1.472,0,1,0-2.057,2.107Z" transform="translate(-160.583 -149.357)"/><path class="a" d="M168.216,237h-2.034a1.472,1.472,0,1,0,0,2.944h2.034a1.472,1.472,0,1,0,0-2.944Z" transform="translate(-69.527 -152.434)"/><path class="a" d="M103.472,239.944h8.877a1.472,1.472,0,1,0,0-2.944h-8.877a1.472,1.472,0,1,0,0,2.944Z" transform="translate(-22.205 -152.434)"/><path class="a" d="M145.578,287h-9.4a1.472,1.472,0,1,0,0,2.944h9.4a1.472,1.472,0,1,0,0-2.944Z" transform="translate(-46.889 -190.165)"/><path class="a" d="M103.472,289.944h1.516a1.472,1.472,0,1,0,0-2.944h-1.516a1.472,1.472,0,1,0,0,2.944Z" transform="translate(-22.205 -190.165)"/><path class="a" d="M175,338.472a1.472,1.472,0,0,0,1.472,1.472h6.871a1.472,1.472,0,1,0,0-2.944h-6.871A1.472,1.472,0,0,0,175,338.472Z" transform="translate(-77.292 -227.897)"/><path class="a" d="M114.8,337H103.472a1.472,1.472,0,1,0,0,2.944H114.8a1.472,1.472,0,1,0,0-2.944Z" transform="translate(-22.205 -227.897)"/><path class="a" d="M146.472,185.945H155.8a1.472,1.472,0,0,0,0-2.945h-9.324a1.472,1.472,0,0,0,0,2.945Z" transform="translate(-54.654 -111.684)"/><path class="a" d="M103.472,185.945h3.969a1.472,1.472,0,1,0,0-2.945h-3.969a1.472,1.472,0,0,0,0,2.945Z" transform="translate(-22.205 -111.684)"/></g></svg>