<svg xmlns="http://www.w3.org/2000/svg" width="30.195" height="13.937" viewBox="0 0 30.195 13.937"><defs><style>.a{fill:#fff;}</style></defs><g transform="translate(-11.5 7)"><g transform="translate(11.5 -2.285)"><path class="a" d="M37.049-1.308H13.823A2.331,2.331,0,0,1,11.5-3.645a2.328,2.328,0,0,1,2.323-2.337H37.049a2.328,2.328,0,0,1,2.323,2.337A2.331,2.331,0,0,1,37.049-1.308Z" transform="translate(-11.5 5.982)"/></g><g transform="translate(32.402 -7)"><path class="a" d="M18.324,6.937A2.323,2.323,0,0,1,16.679,2.97l3.005-3-3.005-3a2.33,2.33,0,0,1,0-3.289,2.33,2.33,0,0,1,3.289,0l4.645,4.645a2.33,2.33,0,0,1,0,3.289L19.968,6.258A2.333,2.333,0,0,1,18.324,6.937Z" transform="translate(-16 7)"/></g></g></svg>