<svg xmlns="http://www.w3.org/2000/svg" width="119.469" height="107.335" viewBox="0 0 119.469 107.335"><defs><style>.a{fill:#adadad;}</style></defs><g transform="translate(0 -26)"><g transform="translate(0 26)"><path class="a" d="M112.469,26H7a7.008,7.008,0,0,0-7,7v70a7.008,7.008,0,0,0,7,7H48.068v9.568a11.7,11.7,0,0,0-9.1,9.1H31.734a2.333,2.333,0,0,0,0,4.667h56a2.333,2.333,0,0,0,0-4.667H80.5a11.7,11.7,0,0,0-9.1-9.1V110h41.067a7.008,7.008,0,0,0,7-7V33A7.008,7.008,0,0,0,112.469,26Zm-36.8,102.668H43.8A7.011,7.011,0,0,1,50.4,124H69.068A7.011,7.011,0,0,1,75.667,128.668Zm-22.932-9.333V110h14v9.333ZM114.8,103a2.336,2.336,0,0,1-2.333,2.333H7A2.336,2.336,0,0,1,4.667,103V91.1H114.8Zm0-16.567H4.667V33A2.336,2.336,0,0,1,7,30.667H112.469A2.336,2.336,0,0,1,114.8,33Z" transform="translate(0 -26)"/></g><g transform="translate(52.968 96.001)"><path class="a" d="M238.667,326h-9.333a2.333,2.333,0,0,0,0,4.667h9.333a2.333,2.333,0,0,0,0-4.667Z" transform="translate(-227 -326)"/></g><g transform="translate(24.617 35.168)"><path class="a" d="M173.169,65.291A7,7,0,0,0,166.85,75.31L148.187,93.973a7.026,7.026,0,0,0-6.037,0l-4.663-4.663a7,7,0,1,0-12.637,0l-9.33,9.33a6.986,6.986,0,1,0,3.3,3.3l9.329-9.329a7.025,7.025,0,0,0,6.037,0l4.663,4.662a7,7,0,1,0,12.638,0L170.15,78.61a7,7,0,1,0,3.018-13.319Zm-60.668,42a2.333,2.333,0,1,1,2.333-2.333A2.336,2.336,0,0,1,112.5,107.291Zm18.667-18.667a2.333,2.333,0,1,1,2.333-2.333A2.334,2.334,0,0,1,131.168,88.625Zm14,14a2.333,2.333,0,1,1,2.333-2.333A2.336,2.336,0,0,1,145.168,102.625Zm28-28a2.333,2.333,0,1,1,2.333-2.333A2.334,2.334,0,0,1,173.169,74.624Z" transform="translate(-105.501 -65.291)"/></g></g></svg>