<svg xmlns="http://www.w3.org/2000/svg" width="48.558" height="48.558" viewBox="0 0 48.558 48.558"><defs><style>.a{fill:#fff;}</style></defs><path class="a" d="M21.349,28.927c-.157-.1-.319-.218-.488-.333a5.535,5.535,0,0,0-1.549-.236h-.065c-2.459,0-4.614,1.487-4.614,3.185,0,1.848,1.847,3.293,4.2,3.293,3.109,0,4.684-1.074,4.684-3.186a2.647,2.647,0,0,0-.073-.615C23.238,30.216,22.486,29.7,21.349,28.927Z" transform="translate(-0.322 -0.625)"/><path class="a" d="M19.641,22.18h0a1.883,1.883,0,0,0,1.468-.672,3.856,3.856,0,0,0,.711-3.009c-.279-2.138-1.807-3.918-3.4-3.964l-.064,0a1.884,1.884,0,0,0-1.45.671,3.738,3.738,0,0,0-.689,2.946c.28,2.136,1.841,3.981,3.4,4.03Z" transform="translate(-0.356 -0.32)"/><path class="a" d="M24.279,0A24.279,24.279,0,1,0,48.558,24.279,24.307,24.307,0,0,0,24.279,0Zm-2.8,36.1a10.635,10.635,0,0,1-2.952.4,13.528,13.528,0,0,1-3.314-.4,6.429,6.429,0,0,1-4.193-2.71,3.449,3.449,0,0,1-.451-1.7A4.314,4.314,0,0,1,11,29.857c1.1-2.349,4.008-3.93,7.226-3.93h.092a2.867,2.867,0,0,1-.387-1.44,3.062,3.062,0,0,1,.1-.763,5.8,5.8,0,0,1-5.9-5.808c0-2.3,1.84-4.544,4.47-5.449a7.294,7.294,0,0,1,2.379-.411H26.2a.567.567,0,0,1,.333,1.026l-1.615,1.169a.577.577,0,0,1-.333.106h-.578a5.619,5.619,0,0,1,1.183,3.6,5.377,5.377,0,0,1-2.256,4.216c-1.125.876-1.169,1.118-1.169,1.618a4.8,4.8,0,0,0,1.662,1.783,5.583,5.583,0,0,1,2.763,5.153C26.191,33.166,24.342,35.271,21.48,36.1Zm16.3-12.383a.568.568,0,0,1-.567.567h-4.1v4.1a.568.568,0,0,1-.565.567H31.38a.568.568,0,0,1-.569-.567v-4.1h-4.1a.566.566,0,0,1-.567-.567V22.552a.569.569,0,0,1,.567-.569h4.1v-4.1a.567.567,0,0,1,.569-.567h1.169a.567.567,0,0,1,.565.567v4.1h4.1a.568.568,0,0,1,.567.567v1.169Z"/></svg>