<svg xmlns="http://www.w3.org/2000/svg" width="123.414" height="38.506" viewBox="0 0 123.414 38.506"><defs><style>.a{fill:#727275;}.b{fill:#fff;}</style></defs><g transform="translate(-577.178 -489.662)"><path class="a" d="M662.273,501.152V491.1h-6.417v10.053h-4.814v5.738h4.814v21.465h6.417V506.89h3.105l1.715-5.738Z" transform="translate(-41.355 -0.805)"/><path class="a" d="M710.98,526.66a13.492,13.492,0,0,0-3.7-9.9,14.777,14.777,0,0,0-20.715-.055,13.971,13.971,0,0,0,0,20.02,14.727,14.727,0,0,0,20.71-.062,15.464,15.464,0,0,0,2.463-3.161l.411-.691-5.75-2.03-.293.36c-.864,1.06-1.24,1.476-1.4,1.639a8.045,8.045,0,0,1-11.629.053,8.11,8.11,0,0,1-2.443-5.516H710.98Zm-21.188-3.818a7.6,7.6,0,0,1,7.08-4.737,7.484,7.484,0,0,1,7.01,4.737Z" transform="translate(-58.877 -12.787)"/><path class="a" d="M768.917,531.025l-.3.364c-.778.956-1.059,1.275-1.157,1.374a7.931,7.931,0,0,1-5.822,2.527,7.815,7.815,0,0,1-5.78-2.455,8.853,8.853,0,0,1-.032-12.248,8.026,8.026,0,0,1,11.476-.141c.155.166.5.568,1.285,1.541l.3.372,5.871-2.2-.523-.7a26.273,26.273,0,0,0-2.348-2.827,14.779,14.779,0,0,0-20.607.107,13.971,13.971,0,0,0,.052,20.02,14.727,14.727,0,0,0,20.722-.129,28.612,28.612,0,0,0,2.219-2.752l.522-.71Z" transform="translate(-95.128 -12.784)"/><path class="a" d="M828.142,504.8a12.007,12.007,0,0,0-11.868-2.229V489.662H810.3v38.329h5.975V509.936a5.445,5.445,0,0,1,1.054-1.39,4.432,4.432,0,0,1,3.171-1.31,4.483,4.483,0,0,1,3.242,1.394,4.647,4.647,0,0,1,1.421,3.5v15.859h5.95V511.917A9.926,9.926,0,0,0,828.142,504.8Z" transform="translate(-130.521)"/><g transform="translate(577.178 490.776)"><path class="b" d="M581.665,500.4a4.393,4.393,0,0,0,3.175-1.24,3.933,3.933,0,0,0,1.282-2.891,3.872,3.872,0,0,0-1.282-2.831h0a4.739,4.739,0,0,0-6.4,0,3.893,3.893,0,0,0-1.264,2.828,3.953,3.953,0,0,0,1.264,2.887A4.415,4.415,0,0,0,581.665,500.4Z" transform="translate(-577.178 -492.194)"/><rect class="b" width="6.66" height="28.434" transform="translate(1.127 8.781)"/></g><path class="b" d="M620.682,512v3.691a10.131,10.131,0,0,0-8.072-3.471,14.112,14.112,0,0,0-10.31,4.21,13.971,13.971,0,0,0,0,20.02,14.086,14.086,0,0,0,10.311,4.224,10.083,10.083,0,0,0,8.072-3.506v2.863h6.169V512Zm-1.295,12.828v3.209a6.761,6.761,0,0,1-1.886,3.505,6.768,6.768,0,0,1-9.786.046,6.911,6.911,0,0,1-2.069-5.133,7.014,7.014,0,0,1,2.072-5.181,6.718,6.718,0,0,1,9.784.048A6.761,6.761,0,0,1,619.388,524.828Z" transform="translate(-11.7 -12.507)"/></g></svg>