<svg xmlns="http://www.w3.org/2000/svg" width="49" height="49" viewBox="0 0 49 49"><defs><style>.a{fill:#fff;}.b{fill:#2e2e2e;}</style></defs><g transform="translate(-1102 648)"><circle class="a" cx="24.5" cy="24.5" r="24.5" transform="translate(1102 -648)"/><path class="b" d="M35.35,19.02c.011.241.017.483.017.726A15.9,15.9,0,0,1,10.9,33.134a11.284,11.284,0,0,0,8.274-2.314,5.594,5.594,0,0,1-5.22-3.882,5.61,5.61,0,0,0,2.523-.094,5.589,5.589,0,0,1-4.482-5.48c0-.023,0-.048,0-.07a5.565,5.565,0,0,0,2.53.7A5.6,5.6,0,0,1,12.8,14.532a15.867,15.867,0,0,0,11.518,5.84,5.592,5.592,0,0,1,9.523-5.1,11.154,11.154,0,0,0,3.55-1.356,5.613,5.613,0,0,1-2.461,3.092,11.11,11.11,0,0,0,3.21-.879A11.241,11.241,0,0,1,35.35,19.02Z" transform="translate(1102.438 -648.298)"/></g></svg>