<svg xmlns="http://www.w3.org/2000/svg" width="108.892" height="110.25" viewBox="0 0 108.892 110.25"><defs><style>.a{fill:#adadad;}</style></defs><g transform="translate(-23.75 -23.252)"><path class="a" d="M101.262,77.569a1.691,1.691,0,0,0-1.691,1.691v11.4h-6.7a1.691,1.691,0,0,0-1.652,1.326,28.3,28.3,0,0,1-3.8,9.143,1.69,1.69,0,0,0,.23,2.1l4.748,4.748-6.865,6.865L80.783,110.1a1.691,1.691,0,0,0-2.1-.23,28.318,28.318,0,0,1-9.143,3.8,1.691,1.691,0,0,0-1.326,1.652v6.7H58.5v-6.7a1.691,1.691,0,0,0-1.326-1.652,28.32,28.32,0,0,1-9.141-3.8,1.691,1.691,0,0,0-2.1.23l-4.747,4.747-6.865-6.865,4.748-4.748a1.69,1.69,0,0,0,.23-2.1,28.3,28.3,0,0,1-3.8-9.143,1.691,1.691,0,0,0-1.652-1.326H27.137V80.951h6.7a1.691,1.691,0,0,0,1.652-1.326,28.292,28.292,0,0,1,3.8-9.143,1.691,1.691,0,0,0-.23-2.1L34.314,63.63l6.865-6.865,4.747,4.747a1.69,1.69,0,0,0,2.1.23,28.3,28.3,0,0,1,9.143-3.8A1.691,1.691,0,0,0,58.5,56.291v-6.7H69.9a1.691,1.691,0,1,0,0-3.382H56.808A1.691,1.691,0,0,0,55.117,47.9v7.066a31.617,31.617,0,0,0-7.742,3.217L42.37,53.174a1.691,1.691,0,0,0-2.392,0l-9.253,9.257a1.69,1.69,0,0,0,0,2.392l5.005,5.005a31.6,31.6,0,0,0-3.217,7.741H25.441A1.691,1.691,0,0,0,23.75,79.26V92.351a1.691,1.691,0,0,0,1.691,1.69h7.066a31.612,31.612,0,0,0,3.216,7.742l-5.005,5.005a1.69,1.69,0,0,0,0,2.392l9.265,9.257a1.691,1.691,0,0,0,2.392,0l5.005-5.005a31.632,31.632,0,0,0,7.741,3.216v7.066a1.691,1.691,0,0,0,1.691,1.691H69.9a1.691,1.691,0,0,0,1.691-1.691v-7.066a31.63,31.63,0,0,0,7.738-3.216l5.005,5.005a1.691,1.691,0,0,0,2.39,0l9.257-9.256a1.691,1.691,0,0,0,0-2.392l-5.005-5.005a31.617,31.617,0,0,0,3.217-7.742h7.066a1.691,1.691,0,0,0,1.691-1.691V79.26A1.691,1.691,0,0,0,101.262,77.569Z" transform="translate(0 8.098)"/><path class="a" d="M39.907,80.106A17.747,17.747,0,1,0,57.654,62.359,17.747,17.747,0,0,0,39.907,80.106ZM57.654,65.741A14.365,14.365,0,1,1,43.289,80.106,14.365,14.365,0,0,1,57.654,65.741Z" transform="translate(5.7 13.796)"/><path class="a" d="M120.48,60.452a1.691,1.691,0,0,0-.921-.909l-4.919-2a25.316,25.316,0,0,0-.05-6.174l4.9-2.07a1.691,1.691,0,0,0,.9-2.216l-4.023-9.526a1.691,1.691,0,0,0-2.216-.9l-4.9,2.068a25.347,25.347,0,0,0-4.391-4.337l2-4.92a1.691,1.691,0,0,0-.931-2.2l-9.582-3.891a1.694,1.694,0,0,0-2.2.931l-2,4.919a25.42,25.42,0,0,0-6.174.05l-2.07-4.9a1.69,1.69,0,0,0-2.216-.9L72.157,27.5a1.691,1.691,0,0,0-.9,2.216l2.068,4.9a25.349,25.349,0,0,0-4.338,4.4l-4.92-2a1.691,1.691,0,0,0-2.2.931l-3.892,9.578a1.691,1.691,0,0,0,.931,2.2l4.92,2a25.317,25.317,0,0,0,.05,6.174l-4.9,2.07a1.691,1.691,0,0,0-.9,2.216L62.1,71.7a1.691,1.691,0,0,0,2.216.9l4.9-2.075a25.331,25.331,0,0,0,4.4,4.347l-2,4.92a1.691,1.691,0,0,0,.931,2.2l9.582,3.891a1.691,1.691,0,0,0,2.2-.931l2-4.92a25.317,25.317,0,0,0,6.174-.05l2.07,4.9a1.69,1.69,0,0,0,2.216.9l9.526-4.023a1.691,1.691,0,0,0,.9-2.216l-2.075-4.9a25.352,25.352,0,0,0,4.345-4.391l4.92,2a1.69,1.69,0,0,0,2.2-.931l3.891-9.582a1.692,1.692,0,0,0-.008-1.292Zm-6.38,8.036-4.576-1.859a1.688,1.688,0,0,0-2.029.607,21.993,21.993,0,0,1-5.411,5.475,1.69,1.69,0,0,0-.579,2.037l1.925,4.559-6.411,2.706-1.925-4.559a1.7,1.7,0,0,0-1.868-1,22,22,0,0,1-7.7.062,1.7,1.7,0,0,0-1.851,1.031L81.819,82.12,75.372,79.5l1.859-4.576a1.691,1.691,0,0,0-.607-2.029,22.01,22.01,0,0,1-5.475-5.411,1.69,1.69,0,0,0-2.037-.579L64.552,68.83l-2.706-6.411,4.559-1.925A1.691,1.691,0,0,0,67.41,58.63a21.985,21.985,0,0,1-.062-7.7,1.691,1.691,0,0,0-1.031-1.851l-4.576-1.859,2.619-6.449,4.576,1.86a1.688,1.688,0,0,0,2.029-.607,22,22,0,0,1,5.411-5.475,1.69,1.69,0,0,0,.579-2.037l-1.925-4.559,6.411-2.706,1.925,4.559a1.691,1.691,0,0,0,1.864,1.005,21.981,21.981,0,0,1,7.7-.061,1.688,1.688,0,0,0,1.851-1.031l1.859-4.576,6.449,2.619-1.859,4.576a1.691,1.691,0,0,0,.607,2.029,21.994,21.994,0,0,1,5.475,5.411,1.69,1.69,0,0,0,2.037.579l4.559-1.925,2.706,6.411-4.559,1.925a1.691,1.691,0,0,0-1.005,1.864,21.973,21.973,0,0,1,.061,7.7,1.691,1.691,0,0,0,1.031,1.851l4.576,1.859Z" transform="translate(12.03 0)"/><path class="a" d="M90.206,36.707a1.691,1.691,0,1,0-1.272,3.133,10.994,10.994,0,1,1-7.608-.247,1.691,1.691,0,0,0-1.069-3.209,14.376,14.376,0,1,0,9.948.321Z" transform="translate(16.464 4.602)"/></g></svg>