<svg xmlns="http://www.w3.org/2000/svg" width="125.559" height="125.559" viewBox="0 0 125.559 125.559"><defs><style>.a{fill:#adadad;}</style></defs><path class="a" d="M120,208h64.8v4.05H120Zm0,0" transform="translate(-89.623 -155.346)"/><path class="a" d="M272,240h26.327v4.05H272Zm0,0" transform="translate(-203.145 -179.246)"/><path class="a" d="M120,240h26.327v4.05H120Zm0,0" transform="translate(-89.623 -179.246)"/><path class="a" d="M272,176h26.327v4.05H272Zm0,0" transform="translate(-203.145 -131.447)"/><path class="a" d="M120,176h26.327v4.05H120Zm0,0" transform="translate(-89.623 -131.447)"/><path class="a" d="M120,144h64.8v4.05H120Zm0,0" transform="translate(-89.623 -107.547)"/><path class="a" d="M388.151,118.623V108.151A12.163,12.163,0,0,0,376,96v4.05a8.109,8.109,0,0,1,8.1,8.1v10.472a15.73,15.73,0,0,0,3.372,9.78,15.73,15.73,0,0,0-3.372,9.78v10.472a8.109,8.109,0,0,1-8.1,8.1v4.05a12.163,12.163,0,0,0,12.151-12.151V138.182a11.727,11.727,0,0,1,3.457-8.348l1.432-1.432-1.432-1.432A11.724,11.724,0,0,1,388.151,118.623Zm0,0" transform="translate(-280.818 -71.698)"/><path class="a" d="M61.627,148.654V138.182a15.73,15.73,0,0,0-3.372-9.78,15.73,15.73,0,0,0,3.372-9.78V108.151a8.109,8.109,0,0,1,8.1-8.1V96a12.163,12.163,0,0,0-12.151,12.151v10.472a11.727,11.727,0,0,1-3.457,8.348L52.688,128.4l1.432,1.432a11.724,11.724,0,0,1,3.457,8.348v10.472A12.163,12.163,0,0,0,69.727,160.8v-4.05A8.109,8.109,0,0,1,61.627,148.654Zm0,0" transform="translate(-39.35 -71.698)"/><path class="a" d="M224.1,352a8.1,8.1,0,1,0,8.1,8.1A8.109,8.109,0,0,0,224.1,352Zm0,12.151a4.05,4.05,0,1,1,4.05-4.05A4.054,4.054,0,0,1,224.1,364.151Zm0,0" transform="translate(-161.321 -262.893)"/><path class="a" d="M225.253,320a16.25,16.25,0,0,0-7.71,1.948l1.93,3.563a12.154,12.154,0,0,1,16.47,16.47l3.563,1.93A16.207,16.207,0,0,0,225.253,320Zm0,0" transform="translate(-162.473 -238.994)"/><path class="a" d="M200.2,373.4a12.154,12.154,0,0,1-10.69-17.931l-3.563-1.93a16.207,16.207,0,0,0,21.963,21.963l-1.93-3.563A12.18,12.18,0,0,1,200.2,373.4Zm0,0" transform="translate(-137.422 -264.046)"/><path class="a" d="M125.559,6.075A6.083,6.083,0,0,0,119.484,0H6.075A6.083,6.083,0,0,0,0,6.075V99.232H34.428v3.606l5.069,1.269a24.322,24.322,0,0,0,1.942,4.682l-2.692,4.483,7.963,7.963,4.483-2.692a24.075,24.075,0,0,0,4.682,1.942l1.273,5.073H68.411l1.269-5.069a24.322,24.322,0,0,0,4.682-1.942l4.483,2.692,7.963-7.963-2.692-4.483a24.075,24.075,0,0,0,1.942-4.682l5.073-1.273V99.232h34.428ZM6.075,4.05H119.484a2.029,2.029,0,0,1,2.025,2.025V16.2H4.05V6.075A2.029,2.029,0,0,1,6.075,4.05ZM87.081,99.676l-4.346,1.087-.288,1.194a20.092,20.092,0,0,1-2.4,5.8L79.4,108.8l2.309,3.846-3.492,3.492-3.846-2.309-1.047.642a20.12,20.12,0,0,1-5.8,2.4l-1.194.288-1.089,4.348H60.31l-1.087-4.346-1.194-.288a20.092,20.092,0,0,1-5.8-2.4l-1.047-.642-3.846,2.309-3.492-3.492,2.309-3.846-.642-1.047a20.12,20.12,0,0,1-2.4-5.8l-.288-1.194-4.348-1.089V94.738l4.346-1.087.288-1.194a20.092,20.092,0,0,1,2.4-5.8l.642-1.047-2.309-3.846,3.492-3.492,3.846,2.309,1.047-.642a20.12,20.12,0,0,1,5.8-2.4l1.194-.288,1.089-4.348h4.938l1.087,4.346,1.194.288a20.092,20.092,0,0,1,5.8,2.4l1.047.642,3.846-2.309,3.492,3.492L79.4,85.613l.642,1.047a20.12,20.12,0,0,1,2.4,5.8l.288,1.194,4.348,1.089Zm4.05-4.494V91.576l-5.069-1.269a24.322,24.322,0,0,0-1.942-4.682l2.692-4.483-7.963-7.963L74.366,75.87a24.075,24.075,0,0,0-4.682-1.942l-1.273-5.073H57.148l-1.269,5.069A24.322,24.322,0,0,0,51.2,75.866l-4.483-2.692-7.963,7.963,2.692,4.483A24.075,24.075,0,0,0,39.5,90.3l-5.073,1.273v3.606H4.05V20.251H121.509v74.93Zm0,0"/><path class="a" d="M32,32h4.05v4.05H32Zm0,0" transform="translate(-23.899 -23.899)"/><path class="a" d="M64,32h4.05v4.05H64Zm0,0" transform="translate(-47.799 -23.899)"/><path class="a" d="M96,32h4.05v4.05H96Zm0,0" transform="translate(-71.698 -23.899)"/></svg>