<svg xmlns="http://www.w3.org/2000/svg" width="97" height="107.965" viewBox="0 0 97 107.965"><defs><style>.a{fill:#e49202;}</style></defs><g transform="translate(-26)"><g transform="translate(95.587 83.504)"><path class="a" d="M358.109,396a2.109,2.109,0,1,0,2.109,2.109A2.109,2.109,0,0,0,358.109,396Z" transform="translate(-356 -396)"/></g><g transform="translate(26)"><g transform="translate(0)"><path class="a" d="M102.888,76.685l-10.023-3.34-3.6-7.2a23.1,23.1,0,0,0,6.251-12.218l.449-2.69H99.8a6.333,6.333,0,0,0,6.326-6.326V31.63a31.63,31.63,0,1,0-63.261,0V44.915a6.336,6.336,0,0,0,4.217,5.963V53.35a6.333,6.333,0,0,0,6.326,6.326h1.852A22.876,22.876,0,0,0,58.8,65.153c.3.343.61.676.929,1l-3.6,7.192-10.023,3.34C34.458,80.572,26,92.84,26,105.857a2.109,2.109,0,0,0,2.109,2.109h92.783A2.109,2.109,0,0,0,123,105.857C123,92.84,114.542,80.572,102.888,76.685Zm-.975-31.77A2.111,2.111,0,0,1,99.8,47.024H96.586c.536-4.152.893-8.57,1.037-12.922,0-.123.008-.242.011-.363h4.279ZM49.2,47.024a2.111,2.111,0,0,1-2.109-2.109V33.739h4.28q.01.33.023.663c0,.008,0,.015,0,.023v0c.148,4.233.5,8.536,1.024,12.6H49.2Zm4.217,8.435A2.111,2.111,0,0,1,51.3,53.35V51.241h1.729l.449,2.69c.086.511.191,1.021.313,1.527ZM51.308,29.522H47.167a27.414,27.414,0,0,1,54.666,0h-4.14a21.358,21.358,0,0,0-21.3-21.087H72.613A21.358,21.358,0,0,0,51.308,29.522Zm21.3-16.87h3.775A17.147,17.147,0,0,1,93.478,29.819c0,.664-.005,1.241-.016,1.767,0,.007,0,.014,0,.021l-2.638-.377A33.884,33.884,0,0,1,71.774,21.7a2.109,2.109,0,0,0-1.491-.618,19.077,19.077,0,0,0-14.668,6.939A17.141,17.141,0,0,1,72.613,12.652ZM58.166,55.459c-1.056-3.512-2.263-13.844-2.53-20.466l2.838-3.784a14.843,14.843,0,0,1,10.976-5.881A38.141,38.141,0,0,0,90.228,35.4l3.1.444c-.208,4.4-.632,8.823-1.239,12.888v0c-.193,1.307-.345,2.148-.734,4.5-1.117,6.7-6.115,12.756-12.713,14.405A16.591,16.591,0,0,1,60.02,59.676h4.3a6.336,6.336,0,0,0,5.963,4.217H74.5a6.326,6.326,0,1,0,0-12.652H70.283a6.329,6.329,0,0,0-5.967,4.217ZM70.105,71.91a21.15,21.15,0,0,0,7.843.177l-3.726,3.941Zm1.218,7.183-6.688,7.073a80.344,80.344,0,0,1-4.721-10.948l2.512-5.023ZM86.217,69.48l2.869,5.738a80.321,80.321,0,0,1-4.722,10.951L77.205,79.01ZM68.174,57.567a2.109,2.109,0,0,1,2.109-2.109H74.5a2.109,2.109,0,1,1,0,4.217H70.283A2.111,2.111,0,0,1,68.174,57.567ZM30.3,103.748C31.137,93.3,38.09,83.807,47.446,80.687l8.876-2.958a84.531,84.531,0,0,0,6,13.019l.012.021h0a84.556,84.556,0,0,0,5.772,8.814l2.594,4.164Zm44.2-1.88-2.86-4.591q-.048-.077-.1-.15a80.4,80.4,0,0,1-4.751-7.1l7.52-7.953L82.231,90a80.31,80.31,0,0,1-4.768,7.127C77.359,97.264,77.506,97.047,74.5,101.868Zm3.8,1.88,2.594-4.164A84.522,84.522,0,0,0,86.7,90.7l.031-.056,0-.007a84.461,84.461,0,0,0,5.939-12.908l8.876,2.958c9.356,3.12,16.309,12.615,17.144,23.061H78.3Z" transform="translate(-26)"/></g></g><g transform="translate(102.997 87.53)"><path class="a" d="M400.5,422.773a21.083,21.083,0,0,0-5.969-7.247,2.109,2.109,0,1,0-2.572,3.343,16.841,16.841,0,0,1,4.768,5.789,2.109,2.109,0,0,0,3.773-1.885Z" transform="translate(-391.139 -415.089)"/></g></g></svg>